<svg xmlns="http://www.w3.org/2000/svg" viewBox="0 0 22 20">
    <path d="m21.994 9.978c.038-.352-.115-.664-.42-.937L11.817.273C11.588.078 11.282 0 11.015 0s-.573.039-.84.312L.382 9.036C.115 9.309-0 9.622-0 9.973c0 .707.535 1.254 1.222 1.254h1.223v2.722c-.004.035-.004.074-.004.109v4.374c0 .863.684 1.562 1.528 1.562h.611c.046 0 .092-.004.138-.008.057.004.115.008.172.008h2.136c.844 0 1.528-.699 1.528-1.562v-3.436c0-.691.546-1.25 1.223-1.25h2.445c.676 0 1.222.559 1.222 1.25v3.437c0 .863.684 1.562 1.528 1.562h.917l1.242.004c.053 0 .107 0 .161-.004.042.004.084.004.126.004h.611c.844 0 1.528-.699 1.528-1.562v-.633c.011-.105.019-.211.019-.316l-.027-6.257h1.222c.65 0 1.222-.551 1.222-1.254z"
          id="icon" fill="#dfdcd4"/>
</svg>