<svg xmlns="http://www.w3.org/2000/svg" viewBox="0 0 917 1018">
    <path d="m520 1017.6449c-7.3479.9784-10.962.2009-19.6883-4.2353-5.8786-2.9885-15.0042-10.1559-20.2791-15.9275-5.2749-5.7716-16.0545-19.1312-23.9545-29.688-7.9-10.5568-22.3021-31.2902-32.0046-46.0743-9.7025-14.7841-25.3882-42.0971-34.8572-60.6956C379.7473 842.4256 372 825.3228 372 823.0179c0-2.8359 1.2736-4.1907 3.9394-4.1907 2.1666 0 23.0885 7.7285 46.493 17.1745 32.1255 12.9658 45.9862 17.5601 56.5606 18.748 7.7038.8654 14.555 1.0119 15.2249.3255.6698-.6864 3.5476-7.998 6.395-16.248 2.8474-8.25 6.4809-19.95 8.0743-26s3.8687-16.85 5.0562-24c1.1875-7.15 3.2001-23.1477 4.4725-35.5505 1.5855-15.4552 1.9485-50.3807 1.1537-111-.6379-48.6472-2.0936-104.1995-3.2349-123.4495-1.1413-19.25-2.5505-37.0042-3.1315-39.4538-.9628-4.0597-1.9831-3.4329-11.5298 7.083-5.7604 6.3452-23.9085 26.7994-40.329 45.4538-16.4205 18.6544-43.8705 47.9387-61 65.0762-17.1295 17.1375-45.0945 43.3102-62.1445 58.1615-17.05 14.8513-40.0465 34.1756-51.1034 42.943-11.0569 8.7673-30.1952 22.9343-42.5297 31.4821-12.3345 8.5478-32.988 21.8585-45.8966 29.5793C185.5616 766.873 162.4 779.3104 147 786.791c-15.4 7.4805-38.9857 17.7453-52.4127 22.8105-13.427 5.0653-35.9182 12.3632-49.9805 16.2176-14.0622 3.8544-29.8515 7.0081-35.0872 7.0081H0v-6.9009c0-6.4337 1.6586-8.2177 24.5-26.3524 13.475-10.6983 34.3757-27.6179 46.4459-37.5991 12.0703-9.9812 41.3203-34.2062 65-53.8332 23.6797-19.6271 53.8541-44.8271 67.0541-56 13.2-11.1729 53.3351-49.5644 89.189-85.3144 40.3115-40.1946 73.5615-75.3038 87.1282-92 12.0665-14.85 28.6973-36 36.9572-47s19.795-27.1089 25.6335-35.7975l10.6154-15.7975-8.7617 1.4087c-4.8189.7748-15.9617 2.3063-24.7617 3.4034s-31.5985 5.1053-50.6633 8.9072c-19.0648 3.8019-48.7648 10.4492-66 14.7718-17.2352 4.3226-41.2367 9.8939-53.3367 12.3807-17.892 3.6771-28.7222 4.5403-58 4.6223-31.8233.0892-37.8563-.4343-52-4.5122-8.8-2.5372-21.85-7.8072-29-11.7112s-18.6828-11.1398-25.6286-16.0797c-6.9457-4.9399-18.9925-15.0982-26.7707-22.574-12.8161-12.318-14.0097-14.1283-12.7299-19.3072.7767-3.1431 2.0295-6.3507 2.7839-7.128.7544-.7772 18.9157-3.2477 40.3585-5.49C109.4559 332.6818 137.35 329.938 150 328.8268c12.65-1.1112 47.3-3.8308 77-6.0436s65.7-4.9144 80-6.0037 41.3-2.9057 60-4.0364c18.7-1.1307 44.35-2.9033 57-3.939s27.05-2.723 32-3.7494c4.95-1.0265 15.1833-3.715 22.7406-5.9746 7.5573-2.2595 15.9575-5.5608 18.667-7.3361 2.7095-1.7754 6.0994-6.0829 7.5331-9.5724 1.4337-3.4894 3.7165-13.0279 5.0731-21.1966 1.4404-8.674 1.9216-20.3214 1.1566-28-.7204-7.2313-3.091-25.2466-5.2679-40.0339-2.177-14.7874-6.1955-37.9362-8.9301-51.4419-2.7346-13.5056-7.6466-31.8843-10.9156-40.8415-3.269-8.9572-10.4691-24.7555-16.0002-35.1074C460.7925 48.2119 460 45.6494 460 33.0327c0-13.6287.0434-13.736 8.8205-21.8264 5.4028-4.9801 11.796-8.7433 16.5-9.7121 4.2237-.8699 12.1795-1.5411 17.6795-1.4916 5.5.0496 14.95 1.6976 21 3.6623 6.05 1.9647 22.7 9.2483 37 16.1857 14.3 6.9374 30.6844 16.5202 36.4099 21.295 5.7254 4.7749 12.4754 12.7316 15 17.6816 3.934 7.7136 4.5847 12.0016 4.5525 30-.0292 16.264-1.2623 25.736-5.4681 42-2.9868 11.55-6.3441 30.9-7.4607 43-1.1166 12.1-2.031 36.2039-2.0319 53.5642-.0012 22.7087.7931 33.4665 2.8313 38.3444 1.5581 3.7291 5.1981 8.3299 8.0888 10.224 4.3702 2.8635 8.0214 3.2266 21.6671 2.1549 9.2569-.727 29.0533-4.8031 45.4112-9.3502 15.95-4.4337 39.35-9.9212 52-12.1944 18.9223-3.4004 28.3187-3.9588 53-3.1497 26.2244.8597 32.6051 1.7751 50.7 7.2734 11.385 3.4594 27.585 9.752 36 13.9835 8.415 4.2315 20.8124 11.8379 27.5497 16.9031 7.1278 5.3588 13.3996 11.935 15 15.7281 1.5127 3.5853 2.7504 11.6101 2.7504 17.833 0 9.6009-.9241 12.4783-6.1022 19-3.3562 4.2271-10.1377 9.7129-15.0701 12.1906-8.4893 4.2646-12.5935 4.614-76.8978 6.547-37.3614 1.1231-94.0299 2.8664-125.9299 3.874-44.4319 1.4035-60.5044 2.6115-68.7057 5.1638-9.7027 3.0196-11.0898 4.2002-14.8062 12.6016-4.0847 9.2341-4.095 10.1735-2.6916 243.2893.9992 165.9695.7675 239.8352-.7969 254.0194-1.2132 11-4.0733 27.2-6.3557 36-2.2825 8.8-7.5238 23.2-11.6474 32-4.1236 8.8-11.2327 20.95-15.798 27-4.5653 6.05-13.4526 16.2896-19.7496 22.7548-6.297 6.4651-14.1491 12.9045-17.4491 14.3097-3.3 1.4052-10.05 3.0942-15 3.7533z"
          id="logo"/>
</svg>