<svg xmlns="http://www.w3.org/2000/svg" viewBox="0 0 1092 82.58">
    <path d="M873.2773-.002c-.4068.0004-.8207.008-1.2382.0254-.92 0-2.1793.2117-3.7793.6347-1.61.423-3.3691 1.15-5.2891 2.168-1.92 1.004-3.7708 2.3988-5.5508 4.1758-1.78 1.785-3.2394 4.0656-4.3594 6.8476-1.39 3.298-1.8811 6.384-1.4511 9.252.42 2.855 1.7409 5.8031 3.9609 8.8301 2.23 3.033 5.3501 6.502 9.3301 10.414s7.4205 7.4476 10.3105 10.5996c2.91 3.14 4.8986 6.0413 5.9786 8.6973 1.09 2.644.9407 5.1956-.4493 7.6406-3.51 0-6.7304-.82-9.6504-2.459-2.93-1.639-5.4706-3.8384-7.6406-6.6074-2.17-2.762-3.8488-5.8031-5.0488-9.1211-1.18-3.311-1.7695-6.6412-1.7695-9.9922 0 0-.4609.4955-1.3809 1.4805-.89.971-1.9506 2.2604-3.1406 3.8594-1.18 1.606-2.2385 3.3711-3.1485 5.2871-.9 1.924-1.3515 3.826-1.3515 5.709 0 3.701 1.0002 6.9923 2.9902 9.8613 1.99 2.855 4.7099 5.0875 8.1699 6.6875 3.47 1.599 7.3597 2.4063 11.6797 2.4063 5.3 0 9.6699-.8073 13.0899-2.4063 3.44-1.6 6.0608-3.6335 7.8808-6.1055 1.81-2.485 2.991-5.036 3.541-7.666.56-2.624.6684-4.9515.3184-6.9805-.62-3.2049-2.0097-6.0791-4.1797-8.6171-2.17-2.551-5.0692-5.472-8.6992-8.75-.78-.634-2.0313-1.7317-3.7813-3.3047-1.74-1.566-3.6697-3.277-5.7597-5.127-2.1-1.851-4.0888-3.583-5.9688-5.209-1.54-1.388-2.5715-2.9935-3.1015-4.8105-.51-1.811-.4391-3.4904.2109-5.0234.67-1.533 2.0208-2.5431 4.0508-3.0391 1.6-.423 3.0983-.1068 4.4883.9512 1.41 1.044 2.6712 2.4515 3.7812 4.2285 1.13 1.785 2.0889 3.5638 2.8789 5.3418.81 1.785 1.4617 3.1988 1.9317 4.2558.78-.773 1.8392-1.9821 3.1992-3.6211 1.38-1.639 2.779-3.3311 4.209-5.0761 1.42-1.745 2.6218-3.2057 3.5918-4.3887.99-1.196 1.4785-1.7969 1.4785-1.7969s-.4885-.4831-1.4785-1.4551c-.97-.984-2.4013-2.0886-4.2813-3.3046-1.89-1.229-4.1703-2.312-6.8203-3.25-2.3188-.833-4.904-1.2452-7.752-1.2422zM619.8926.0234c-2.643 0-5.5099.655-8.5899 1.957-3.067 1.288-6.1081 3.1063-9.1211 5.4453-3.001 2.327-5.7032 5.0884-8.1152 8.2734-2.399 3.173-4.3344 6.6618-5.8144 10.4688-1.468 3.806-2.1954 7.8444-2.1954 12.1074 0 5.234.8722 10.1771 2.6172 14.8301 1.744 4.639 4.1636 8.6975 7.2696 12.1875 3.119 3.489 6.7215 6.2317 10.8125 8.2207 4.084 1.989 8.4647 2.9863 13.1367 2.9863 3.767 0 7.6281-.9973 11.5801-2.9863 3.945-1.989 7.612-4.7317 10.9961-8.2207 3.397-3.49 6.1189-7.5485 8.1679-12.1875 2.062-4.653 3.0938-9.5961 3.0938-14.8301 0-5.3-.8722-10.2628-2.6172-14.8828-1.745-4.613-4.1696-8.6712-7.2695-12.1602-3.106-3.489-6.7012-6.2247-10.7852-8.2207-4.091-1.99-8.48-2.9882-13.166-2.9882zm400.6679 0c-2.65 0-5.5098.655-8.5898 1.957-3.07 1.288-6.1003 3.1063-9.0703 5.4453-2.96 2.327-5.6711 5.0884-8.1211 8.2734-2.43 3.173-4.3794 6.6618-5.8594 10.4688-1.47 3.806-2.1992 7.8444-2.1992 12.1074 0 5.234.8691 10.1644 2.6191 14.7774 1.74 4.6 4.1596 8.6625 7.2696 12.1855 3.12 3.529 6.7205 6.2667 10.8105 8.2227 4.08 1.956 8.4706 2.9336 13.1406 2.9336 3.49 0 6.54-.5152 9.17-1.5333 2.62-1.005 4.9191-2.2341 6.8691-3.7011 1.96-1.46 3.7002-2.8558 5.2402-4.1778v-6.08c-.43.212-1.2.674-2.33 1.375-1.11.687-2.3204 1.442-3.6504 2.248-1.32.793-2.5103 1.4742-3.5703 2.0352-1.04.549-1.6296.7922-1.7696.7402-3.98-.846-7.7899-2.484-11.4199-4.916-3.63-2.446-6.8091-5.4339-9.5391-8.9629-2.72-3.542-4.7007-7.3356-5.9707-11.3926-1.4-4.388-1.8496-8.4997-1.3496-12.3457.49-3.84 1.4489-7.2026 2.8789-10.0976 1.43-2.907 2.9114-5.2473 4.4414-7.0313 1.53-1.778 2.62-2.8817 3.25-3.3047 3.49 1.111 6.2288 2.5111 8.2188 4.2031 1.99 1.678 3.4398 3.3495 4.3398 5.0215.91 1.679 1.4903 3.0929 1.7403 4.2559.25 1.15.3711 1.7187.3711 1.7187l15.1992-15.0937c-3.01-2.994-6.5102-5.2934-10.4902-6.8984-3.99-1.62-7.869-2.4336-11.629-2.4336zM419.5195.1288 398.5566 2.9589V4.9667c0 1.183.9776 1.7715 2.9336 1.7715h2.1153V69.5995l-2.9336.6094c-.846.212-1.4164.6021-1.6934 1.1641-.284.568-.4219 1.1545-.4219 1.7695V74.412h26.0899V73.1425c0-.615-.1439-1.2015-.4219-1.7695-.284-.562-.84-.9521-1.666-1.1641l-3.0391-.6094V51.8886s.7264-.2255 2.1934-.6875c1.46-.456 3.3432-1.1894 5.6562-2.1934 2.306-1.005 4.7463-2.2736 7.3243-3.8066 2.59-1.546 5.0346-3.3904 7.3476-5.5254 2.307-2.128 4.1902-4.5525 5.6582-7.2695 1.46-2.729 2.1934-5.8016 2.1934-9.2246 0-3.206-.6477-6.1866-1.9297-8.9356-1.289-2.763-2.7768-5.2156-4.4688-7.3496-1.678-2.128-3.1574-3.7857-4.4394-4.9687C437.7667.7317 437.125.1288 437.125.1288L419.5195 6.8437V.1288zm53.5254 0-20.8574 2.8301V4.9667c0 1.183.9381 1.7715 2.8281 1.7715h2.2207V69.4941l-2.9336.6347c-.846.126-1.4153.5017-1.6933 1.1367-.284.634-.4219 1.2295-.4219 1.7715v1.375h46.209V54.0839s-.3181.4945-.9531 1.4785c-.621.972-1.5986 2.1958-2.9336 3.6758-1.322 1.467-2.9817 2.9287-4.9707 4.3887-1.996 1.467-4.3748 2.6888-7.1368 3.6738-2.75.971-5.8684 1.4551-9.3574 1.4551V.1288zm333.3028 0-2.1954.3184-18.1347 2.5117V4.5448c0 .548.2255 1.1218.6875 1.7168.456.602 1.2021.8985 2.2461.8985h2.3281V55.3515c0 3.489.4614 6.4769 1.4004 8.9609.951 2.472 2.1206 4.5138 3.5156 6.1328 1.387 1.606 2.8035 2.8496 4.2305 3.7286 1.441.859 2.6293 1.4401 3.5683 1.7441.952.318 1.4278.4766 1.4278.4766l18.8476-16.7598V74.412h20.4297V73.1425c0-.542-.1399-1.097-.4199-1.666-.28-.561-.8495-.9826-1.6895-1.2676l-3.0097-.6094V.1288l-20.334 2.8301V4.5448c0 .548.2191 1.1218.6621 1.7168.456.602 1.2164.8985 2.2734.8985h2.0879V54.7187c-.634.495-1.653 1.0968-3.041 1.7968-1.394.687-2.9256 1.2608-4.5976 1.7168-1.679.443-3.3066.5494-4.8926.3184-1.573-.245-2.8471-.9911-3.8321-2.2461-.971-1.269-1.455-3.2921-1.455-6.0801L806.3477.1288zM0 1.9277V20.4589l1.8242-1.8242c1.216-1.229 2.8018-2.6843 4.7578-4.3633 1.956-1.672 4.0717-3.2046 6.3457-4.5996 2.273-1.388 4.4202-2.2602 6.4492-2.6172V69.5995l-3.0391.6094c-.846.212-1.4154.6208-1.6934 1.2149-.264.6019-.3965 1.1767-.3965 1.7187V74.412H40.3398V73.1425c0-.542-.1449-1.1167-.4219-1.7187-.284-.594-.8474-1.0029-1.6934-1.2149l-3.0391-.6094V7.0546c2.022.357 4.1889 1.2292 6.5019 2.6172 2.306 1.395 4.4749 2.9276 6.5039 4.5996 2.022 1.679 3.66 3.1343 4.916 4.3633 1.249 1.216 1.877 1.8242 1.877 1.8242V1.9277H0zm121.0762 0V3.2753c0 .568.1378 1.1619.4218 1.7969.278.621.8474.9987 1.6934 1.1367l2.9336.7402v62.545l-2.9336.6347c-.846.126-1.4154.5017-1.6934 1.1367-.284.634-.4218 1.2295-.4218 1.7715v1.375h46.207V54.0839s-.3172.4945-.9512 1.4785c-.622.972-1.5986 2.1958-2.9336 3.6758-1.321 1.467-2.9797 2.9287-4.9687 4.3887-1.996 1.467-4.3757 2.6888-7.1387 3.6738-2.749.971-5.8674 1.4531-9.3574 1.4531V42.0292h21.8867V31.9823l-21.8867 3.4629V7.5839c4.402 0 8.1952.6604 11.3672 1.9824 3.172 1.321 5.7886 2.8556 7.8496 4.5996 2.062 1.745 3.5976 3.292 4.6016 4.627 1.018 1.322 1.5312 1.9824 1.5312 1.9824V1.9277h-46.207zm83.498 0V20.4589l1.8242-1.8242c1.216-1.229 2.8019-2.6843 4.7578-4.3633 1.9561-1.672 4.0728-3.2046 6.3458-4.5996 2.274-1.388 4.4202-2.2602 6.4492-2.6172V69.5995l-3.041.6094c-.846.212-1.4134.6208-1.6914 1.2149-.2641.6019-.3965 1.1767-.3965 1.7187V74.412h26.0918V73.1425c0-.542-.1459-1.1167-.4239-1.7187-.284-.594-.8454-1.0029-1.6914-1.2149l-3.039-.6094V7.0546c2.023.357 4.1889 1.2292 6.5019 2.6172 2.307 1.395 4.4759 2.9276 6.5039 4.5996 2.023 1.679 3.661 3.1343 4.916 4.3633 1.249 1.216 1.877 1.8242 1.877 1.8242V1.9277H204.5742zm59.5879 0V3.2753c0 .568.1398 1.1619.4238 1.7969.278.621.8454.9987 1.6914 1.1367l2.9356.7402v62.545l-2.9356.6347c-.846.126-1.4134.5017-1.6914 1.1367-.284.634-.4238 1.2295-.4238 1.7715v1.375h46.209V54.0839s-.3172.4945-.9512 1.4785c-.621.972-1.5986 2.1958-2.9336 3.6758-1.322 1.467-2.9817 2.9287-4.9707 4.3887-1.996 1.467-4.3737 2.6888-7.1367 3.6738-2.749.971-5.8694 1.4531-9.3594 1.4531V42.0292h21.8887V31.9823l-21.8887 3.4629V7.5839c4.402 0 8.1952.6604 11.3672 1.9824 3.173 1.321 5.7896 2.8556 7.8516 4.5996 2.062 1.745 3.5956 3.292 4.5996 4.627 1.018 1.322 1.5332 1.9824 1.5332 1.9824V1.9277h-46.209zm60.8652 0v.1054h-9.0136V3.2753c0 .568.1398 1.1294.4238 1.6914.277.548.8454.9652 1.6914 1.2422l3.0137.6348V69.5995l-3.0137.6094c-.846.212-1.4144.6021-1.6914 1.1641-.284.568-.4238 1.1545-.4238 1.7695V74.412h19.5879V73.1425c0-.615-.1439-1.2015-.4219-1.7695-.264-.562-.82-.9521-1.666-1.1641l-3.0391-.6094V16.3593l18.7676 49.5664 3.1191 8.4863h3.5703l5.3379-17.6054 12.3731-40.5254V69.5995l-3.041.6094c-.846.212-1.4134.6021-1.6914 1.1641-.264.568-.3965 1.1545-.3965 1.7695V74.412h26.0918V73.1425c0-.615-.1459-1.2015-.4239-1.7695-.284-.562-.8454-.9521-1.6914-1.1641l-3.041-.6094V6.8437l3.041-.6348c.846-.277 1.4074-.6942 1.6914-1.2422.278-.562.4239-1.1234.4239-1.6914V2.0331H378.0293V1.9277h-8.8027L356.3535 43.0859 341.4707 1.9277H325.0273zm176.1836 0V3.2753c0 .568.1379 1.1619.4219 1.7969.277.621.8454.9987 1.6914 1.1367l2.9356.7402v62.545l-2.9356.6347c-.846.126-1.4144.5017-1.6914 1.1367-.284.634-.4219 1.2295-.4219 1.7715v1.375H547.418V54.0839s-.3172.4945-.9512 1.4785c-.622.972-1.6005 2.1958-2.9356 3.6758-1.3209 1.467-2.9797 2.9287-4.9687 4.3887-1.996 1.467-4.3737 2.6888-7.1367 3.6738-2.749.971-5.8694 1.4531-9.3594 1.4531V42.0292h21.8887V31.9823l-21.8887 3.4629V7.5839c4.402 0 8.1952.6604 11.3672 1.9824 3.172 1.321 5.7896 2.8556 7.8516 4.5996 2.062 1.745 3.5956 3.292 4.5996 4.627 1.018 1.322 1.5332 1.9824 1.5332 1.9824V1.9277H501.2109zm155.7618 0v.1054h-.1055V3.2753c0 .707.1369 1.2955.4219 1.7715.35.635.9124 1.0241 1.6914 1.1621l3.0136.7402V69.5995l-3.0136.6094c-.845.212-1.4144.6021-1.6914 1.1641-.285.568-.4219 1.1545-.4219 1.7695V74.412H682.957V73.1425c0-.615-.1438-1.2015-.4218-1.7695-.284-.562-.8401-.9521-1.6661-1.1641l-3.039-.6094V45.5976h21.8887V35.5527l-21.8887 3.4628V7.5839c4.335 0 8.1024.6604 11.3144 1.9824 3.205 1.321 5.8423 2.8556 7.9043 4.5996 2.062 1.745 3.5937 3.292 4.5977 4.627 1.018 1.322 1.5351 1.9824 1.5351 1.9824V1.9277H656.9727zm241.1464 0V20.4589s.6004-.6082 1.8204-1.8242c1.22-1.229 2.7997-2.6843 4.7597-4.3633 1.96-1.672 4.0699-3.2046 6.3399-4.5996 2.28-1.388 4.4211-2.2602 6.4511-2.6172V69.5995l-3.041.6094c-.84.212-1.4094.6208-1.6894 1.2149-.26.6019-.3907 1.1767-.3907 1.7187V74.412h26.0918V73.1425c0-.542-.1516-1.1167-.4316-1.7187-.28-.594-.8395-1.0029-1.6895-1.2149l-3.039-.6094V7.0546c2.02.357 4.19 1.2292 6.5 2.6172 2.31 1.395 4.4797 2.9276 6.5097 4.5996 2.02 1.679 3.6602 3.1343 4.9102 4.3633 1.25 1.216 1.8789 1.8242 1.8789 1.8242V1.9277H898.1191zm147.5704 0V3.2753c0 .568.1396 1.1619.4296 1.7969.28.621.8414.9987 1.6914 1.1367l2.9297.7402v62.545l-2.9297.6347c-.85.126-1.4114.5017-1.6914 1.1367-.29.634-.4296 1.2295-.4296 1.7715v1.375h46.2109V54.0839s-.3112.4945-.9512 1.4785c-.62.972-1.5997 2.1958-2.9297 3.6758-1.32 1.467-2.9787 2.9287-4.9687 4.3887-2 1.467-4.3806 2.6888-7.1406 3.6738-2.75.971-5.8694 1.4531-9.3594 1.4531V42.0292h21.8887V31.9823l-21.8887 3.4629V7.5839c4.4 0 8.1991.6604 11.3691 1.9824 3.17 1.321 5.7896 2.8556 7.8496 4.5996 2.06 1.745 3.5996 3.292 4.5996 4.627l1.5313 1.9824V1.9277h-46.2109zM91.0371 2.0331V3.2753c0 .568.1325 1.1294.3965 1.6914.278.548.8059.9652 1.5859 1.2422l3.041.6348V29.1542L78.666 37.1112V6.9491l3.0391-.7402c.826-.211 1.382-.5887 1.666-1.1367.278-.562.4238-1.1234.4238-1.6914V2.1386H57.7031V3.3808c0 .568.1398 1.1294.4239 1.6914.278.548.8454.9257 1.6914 1.1367l3.0117.7402V69.707l-3.0117.6074c-.846.212-1.4134.6011-1.6914 1.1621-.284.569-.4239 1.124-.4239 1.666V74.412H83.7949V73.1425c0-.542-.1458-1.097-.4238-1.666-.284-.561-.84-.9501-1.666-1.1621L78.666 69.707V44.7519l17.3945-5.6582V69.5995l-3.041.6094c-.78.212-1.3079.6021-1.5859 1.1641-.264.568-.3965 1.1545-.3965 1.7695V74.412h25.959V73.1425c0-.615-.1449-1.2015-.4219-1.7695-.265-.562-.82-.9521-1.666-1.1641l-3.041-.6094V6.8437l3.041-.6348c.846-.277 1.401-.6942 1.666-1.2422.277-.562.4219-1.1234.4219-1.6914V2.0331H91.0371zm665.6543 0V3.2753c0 .568.1398 1.1294.4238 1.6914.278.548.8454.9652 1.6914 1.2422l3.0411.6348V73.4609c-1.89-.212-3.5551-.8871-4.9961-2.0371-1.428-1.1431-2.6578-2.4836-3.6758-4.0176-1.004-1.546-1.8093-3.0723-2.4043-4.5723-.582-1.493-1.0307-2.7292-1.3477-3.7012-.318-.985-.4765-1.4804-.4765-1.4804l-11.42 12.873s.2837.6226.8457 1.8516c.562 1.216 1.5199 2.6225 2.8809 4.2285 1.355 1.599 3.187 2.9928 5.5 4.1758 2.306 1.197 5.2397 1.7988 8.8027 1.7988.277-.145 1.1492-.7596 2.6172-1.8496 1.46-1.078 3.1837-2.3466 5.1797-3.8066 1.989-1.467 3.9786-2.9217 5.9746-4.3887 1.989-1.481 3.6615-2.7235 5.0235-3.7285 1.355-1.004 2.1001-1.5708 2.2461-1.7168l1.0566-.7403V6.8437l3.041-.6348c.826-.277 1.381-.6942 1.666-1.2422.277-.562.4219-1.1234.4219-1.6914V2.0331H756.6914zm201.0195 0V3.2753c0 .568.13 1.1294.42 1.6914.28.548.8394.9652 1.6894 1.2422l3.0098.6348V69.5995l-3.0098.6094c-.85.212-1.4094.6021-1.6894 1.1641-.29.568-.42 1.1545-.42 1.7695V74.412h26.0899V73.1425c0-.615-.1517-1.2015-.4317-1.7695-.28-.562-.8382-.9521-1.6582-1.1641l-3.041-.6094V6.8437l3.041-.6348c.82-.277 1.3782-.6942 1.6582-1.2422.28-.562.4317-1.1234.4317-1.6914V2.0331H957.7109zM611.7246 10.0956c.35.146 1.2547.5676 2.7227 1.2676 1.46.687 3.2388 1.6863 5.3398 2.9883 2.095 1.289 4.2837 2.9073 6.5567 4.8633 2.2739 1.943 4.368 4.2434 6.291 6.9004 1.916 2.663 3.4358 5.7365 4.5468 9.2265 1.196 3.701 1.5457 7.2815 1.0567 10.7305-.496 3.457-1.3746 6.5847-2.6426 9.3867-1.256 2.789-2.5374 5.0874-3.8594 6.8984-1.322 1.818-2.2336 2.9739-2.7226 3.4629-.357-.211-1.3149-.6409-2.8809-1.2949-1.573-.668-3.4572-1.6141-5.6582-2.8301-2.208-1.229-4.4813-2.8064-6.8203-4.7304-2.327-1.916-4.4876-4.183-6.4766-6.793-1.996-2.624-3.5152-5.6444-4.5722-9.0684-.899-3.079-1.2295-6.0659-.9785-8.9609.244-2.908.8324-5.6112 1.7714-8.1152.951-2.518 2.0143-4.7716 3.1973-6.7676 1.177-1.989 2.2546-3.5965 3.2266-4.8125.984-1.216 1.6183-1.9946 1.9023-2.3516zm-191.3672.2676c1.9576-.0466 3.9249.3935 5.9024 1.3184 2.273 1.045 4.1769 2.7686 5.7109 5.1816 1.546 2.399 2.3262 5.5174 2.3262 9.3574 0 2.802-.5152 5.2744-1.5332 7.4024-1.005 2.115-2.2475 3.9647-3.7285 5.5508-1.467 1.5729-2.9277 2.8687-4.3887 3.8867-1.467 1.004-2.6898 1.7571-3.6738 2.2461-.972.476-1.4532.7129-1.4532.7129V43.1913 35.9745 26.5917 17.2851 10.412c.2793-.0265.5583-.0421.8379-.0488z"
          fill="#dfdcd4" id="subtitle"/>
</svg>