<svg xmlns="http://www.w3.org/2000/svg" viewBox="0 0 705.2 113.5">
    <path d="M109.8906 17.2617l-14.459 51.4434 24.1075-11.5-9.6485-39.9434Zm-77.5566-1.9453c-.4147.0082-.8283.0312-1.2422.0684v10.1777 13.8516 13.9043 10.7343 4.2032s.719-.357 2.166-1.084c1.441-.74 3.2529-1.8574 5.4199-3.3574 2.181-1.494 4.3613-3.4104 6.5293-5.7364 2.181-2.34 4.0254-5.089 5.5254-8.248 1.513-3.172 2.2735-6.8267 2.2735-10.9707 0-5.69-1.1515-10.3223-3.4375-13.9043-2.274-3.576-5.095-6.1404-8.459-7.6934-2.9488-1.3527-5.8725-2.0029-8.7754-1.9453Zm517.7558-.3809c-.409.515-1.3417 1.6793-2.8027 3.4903-1.447 1.818-3.0525 4.203-4.8105 7.164-1.765 2.948-3.3508 6.2836-4.7578 10.0176-1.395 3.721-2.2746 7.7333-2.6446 12.0293-.357 4.302.1468 8.7369 1.5078 13.2969 1.546 5.075 3.7923 9.5621 6.7403 13.4551 2.961 3.879 6.1744 7.2426 9.6504 10.0976 3.469 2.855 6.8326 5.1939 10.0976 7.0039 3.278 1.798 6.0803 3.1928 8.4063 4.1778 2.326.991 3.7542 1.638 4.2832 1.955.72-.72 2.0615-2.4309 4.0175-5.1269 1.969-2.696 3.8908-6.1138 5.7618-10.2578 1.863-4.137 3.1597-8.7753 3.8867-13.9043.72-5.141.1974-10.4545-1.5606-15.9395-1.659-5.181-3.9116-9.7359-6.7656-13.6679-2.842-3.945-5.948-7.3609-9.332-10.2559-3.37-2.907-6.6031-5.3211-9.7031-7.2441-3.106-1.916-5.7487-3.3974-7.9297-4.4414-2.168-1.037-3.516-1.6517-4.045-1.8497Zm-158.6855-11.9746h38.543v1.8496c0 .846-.2118 1.6858-.6348 2.5118-.41.833-1.2354 1.4485-2.4844 1.8515l-4.4941.9239v93.1308l4.4941.9258c1.249.304 2.0744.8708 2.4844 1.7168.423.833.6348 1.7052.6348 2.6172v1.8769h-38.543v-1.8769c0-.912.2004-1.7842.6094-2.6172.423-.846 1.1951-1.4128 2.3261-1.7168l4.5196-.9258v-45.2558l-25.8008 8.4062v36.9824l4.4941.9512c1.249.304 2.0744.8654 2.4844 1.6914.423.833.6367 1.6584.6367 2.4844v1.8769h-38.7011v-1.8769c0-.826.1974-1.6514.6074-2.4844.423-.826 1.2484-1.3874 2.4844-1.6914l4.5214-.9512v-93.1035l-4.5214-1.084c-1.236-.317-2.0614-.8867-2.4844-1.7187-.41-.826-.6074-1.6524-.6074-2.4844v-1.8516h38.7011v1.8516c0 .832-.2137 1.6584-.6367 2.4844-.41.832-1.2354 1.4017-2.4844 1.7187l-4.4941 1.084v44.7793l25.8008-11.8164v-33.123l-4.5196-.9239c-1.131-.403-1.9031-1.0185-2.3261-1.8515-.409-.826-.6094-1.6658-.6094-2.5118v-1.8496Zm260.1953-.1582 32.1699 80.3614v-73.0664l-4.4902-.9239c-1.26-.403-2.0898-1.0195-2.5098-1.8515-.41-.827-.6093-1.6658-.6093-2.5118v-1.8496h29.08v1.8496c0 .846-.2206 1.6848-.6406 2.5118-.41.832-1.1803 1.4485-2.3203 1.8515l-4.5293.9239v100.2675h-25.9492l-33.2617-79.7265v72.5898l4.5214.9258c1.23.304 2.049.8708 2.459 1.7168.42.833.6309 1.7052.6309 2.6172v1.8769h-29.0488v-1.8769c0-.912.1993-1.7842.6093-2.6172.423-.846 1.2475-1.4128 2.4825-1.7168l4.5214-.9258v-93.1308l-4.5214-.9239c-1.235-.403-2.0595-1.0195-2.4825-1.8515-.41-.827-.6093-1.6658-.6093-2.5118v-1.8496h34.0175l-.4492.1582.9297-.3164Zm-215.5859 0h68.5449v27.9668s-.7604-.9776-2.2734-2.9336c-1.5-1.969-3.7787-4.2566-6.8457-6.8476-3.053-2.59-6.9393-4.8624-11.6583-6.8184-4.7049-1.969-10.3228-2.9629-16.8398-2.9629v41.3457l32.4902-5.1289v14.9102h-32.4902v39.6269c5.182 0 9.8153-.7209 13.9063-2.1679 4.084-1.441 7.6132-3.252 10.5742-5.42 2.961-2.181 5.419-4.3613 7.375-6.5292 1.97-2.1801 3.4233-3.9984 4.3613-5.4454.932-1.461 1.4004-2.1953 1.4004-2.1953v30.1621h-68.5449v-2.0078c0-.826.1984-1.7055.6074-2.6445.423-.931 1.2484-1.5068 2.4844-1.7188l4.3633-.9238v-92.8125l-4.3633-1.084c-1.236-.212-2.0614-.7743-2.4844-1.6933-.409-.932-.6074-1.824-.6074-2.67v-2.0078Zm-179.7032 0h81.6036v27.5176s-.9388-.9046-2.8028-2.7226c-1.85-1.811-4.2809-3.9643-7.2949-6.4493-3-2.485-6.2114-4.7583-9.6484-6.8203-3.423-2.075-6.6291-3.385-9.6231-3.914v92.8144l4.4942.9258c1.249.304 2.0743.8925 2.4843 1.7715.423.886.6348 1.7365.6348 2.5625v1.8769H277.457v-1.8769c0-.826.1985-1.6765.6075-2.5625.423-.879 1.2557-1.4675 2.5117-1.7715l4.4941-.9258v-92.8144c-3.001.529-6.1843 1.839-9.5683 3.914-3.37 2.062-6.5042 4.3353-9.4122 6.8203-2.894 2.485-5.2476 4.6383-7.0586 6.4493-1.817 1.818-2.7207 2.7226-2.7207 2.7226v-27.5176Zm-57.1992 0 32.1719 80.3614v-73.0664l-4.4941-.9239c-1.255-.403-2.0888-1.0195-2.5118-1.8515-.41-.827-.6074-1.6658-.6074-2.5118v-1.8496h29.0781v1.8496c0 .846-.2117 1.6848-.6347 2.5118-.41.832-1.1832 1.4485-2.3262 1.8515l-4.5195.9239v100.2675h-25.959l-33.2559-79.7265v72.5898l4.5196.9258c1.23.304 2.049.8708 2.4589 1.7168.4231.833.6348 1.7052.6348 2.6172v1.8769h-29.0527v-1.8769c0-.912.1994-1.7842.6094-2.6172.423-.846 1.2483-1.4128 2.4843-1.7168l4.5196-.9258v-93.1308l-4.5196-.9239c-1.236-.403-2.0613-1.0195-2.4843-1.8515-.41-.827-.6094-1.6658-.6094-2.5118v-1.8496h34.0234l-.4492.1582.9238-.3164Zm-97.1504-2.6445s.9328.1064 2.8028.3184c1.863.211 4.1895.5749 6.9785 1.0839 2.802.515 5.6564 1.2611 8.5644 2.2461 2.907.991 5.4453 2.2139 7.6133 3.6739 2.181 1.447 3.5299 3.1997 4.0449 5.2617.932 3.634 2.1214 8.352 3.5684 14.168 1.461 5.802 3.0468 12.121 4.7578 18.955 1.705 6.84 3.3908 13.6526 5.0488 20.4336 1.653 6.787 3.1532 13.0071 4.4942 18.6641 1.355 5.644 2.4453 10.1709 3.2773 13.5879.826 3.423 1.2442 5.1269 1.2442 5.1269l4.6523.9258c1.249.423 2.0754.8446 2.4844 1.2676.423.41.6348 1.0246.6348 1.8516v2.6425h-37.168v-2.6425c0-.827.1974-1.4416.6074-1.8516.423-.423 1.2567-.8446 2.5117-1.2676l2.961-.6094-8.5645-34.6543-29.8457 9.6211-6.9785 24.877 2.9355.7656c1.46.635 2.1934 1.6782 2.1934 3.1192v2.6425h-23.9512v-2.6425c0-1.441.7283-2.4842 2.1953-3.1192l4.6524-1.084 28.2851-103.3613Zm-70.8691 0v9.9395l26.1152-9.9395s.9525.8865 2.8555 2.6445c1.917 1.765 4.1244 4.2284 6.6094 7.4004 2.485 3.159 4.6863 6.7803 6.6093 10.8653 1.916 4.09 2.8809 8.5258 2.8809 13.2968 0 5.076-1.0963 9.6351-3.2773 13.666-2.167 4.0381-4.9639 7.6406-8.3809 10.8126-3.423 3.159-7.0506 5.8829-10.8906 8.1699-3.826 2.273-7.4483 4.1622-10.8653 5.6562-3.423 1.5-6.2252 2.5894-8.4062 3.2774-2.168.674-3.25 1.0039-3.25 1.0039v26.2773l4.4941.9258c1.249.304 2.0735.8708 2.4825 1.7168.423.833.6347 1.7052.6347 2.6172v1.8769h-38.6992v-1.8769c0-.912.1974-1.7842.6074-2.6172.423-.846 1.2484-1.4128 2.4844-1.7168l4.3613-.9258v-93.2617h-3.1191c-2.894 0-4.334-.8795-4.334-2.6445v-2.961l31.0879-4.2031ZM562.2246 0c6.939 0 13.4408 1.4804 19.5078 4.4414 6.06 2.948 11.3942 7.0055 15.9942 12.1875 4.613 5.181 8.2195 11.2007 10.8105 18.0547 2.591 6.84 3.8867 14.1879 3.8867 22.0449 0 7.772-1.5326 15.1082-4.5996 21.9942-3.053 6.893-7.0844 12.9264-12.1074 18.1074-5.023 5.182-10.4669 9.2548-16.3359 12.2148-5.855 2.961-11.5723 4.4395-17.1563 4.4395-6.946 0-13.4498-1.4785-19.5098-4.4395-6.067-2.96-11.4065-7.0328-16.0195-12.2148-4.599-5.181-8.1951-11.2144-10.7851-18.1074-2.591-6.886-3.8868-14.2222-3.8868-21.9942 0-6.304 1.085-12.2789 3.252-17.9219 2.181-5.658 5.0552-10.8379 8.6172-15.5429 3.576-4.719 7.5937-8.817 12.0547-12.293 4.454-3.47 8.9691-6.1658 13.5351-8.0898 4.56-1.916 8.8102-2.8809 12.7422-2.8809Z"
          fill="#dfdcd4" id="title"/>
</svg>