<svg xmlns="http://www.w3.org/2000/svg">
    <symbol id="home-icon" viewBox="0 0 22 20">
        <path d="m21.994 9.978c.038-.352-.115-.664-.42-.937L11.817.273C11.588.078 11.282 0 11.015 0s-.573.039-.84.312L.382 9.036C.115 9.309-0 9.622-0 9.973c0 .707.535 1.254 1.222 1.254h1.223v2.722c-.004.035-.004.074-.004.109v4.374c0 .863.684 1.562 1.528 1.562h.611c.046 0 .092-.004.138-.008.057.004.115.008.172.008h2.136c.844 0 1.528-.699 1.528-1.562v-3.436c0-.691.546-1.25 1.223-1.25h2.445c.676 0 1.222.559 1.222 1.25v3.437c0 .863.684 1.562 1.528 1.562h.917l1.242.004c.053 0 .107 0 .161-.004.042.004.084.004.126.004h.611c.844 0 1.528-.699 1.528-1.562v-.633c.011-.105.019-.211.019-.316l-.027-6.257h1.222c.65 0 1.222-.551 1.222-1.254z"/>
    </symbol>

    <symbol id="gear-logo" viewBox="0 0 917 1018">
        <path d="m520 1017.6449c-7.3479.9784-10.962.2009-19.6883-4.2353-5.8786-2.9885-15.0042-10.1559-20.2791-15.9275-5.2749-5.7716-16.0545-19.1312-23.9545-29.688-7.9-10.5568-22.3021-31.2902-32.0046-46.0743-9.7025-14.7841-25.3882-42.0971-34.8572-60.6956C379.7473 842.4256 372 825.3228 372 823.0179c0-2.8359 1.2736-4.1907 3.9394-4.1907 2.1666 0 23.0885 7.7285 46.493 17.1745 32.1255 12.9658 45.9862 17.5601 56.5606 18.748 7.7038.8654 14.555 1.0119 15.2249.3255.6698-.6864 3.5476-7.998 6.395-16.248 2.8474-8.25 6.4809-19.95 8.0743-26s3.8687-16.85 5.0562-24c1.1875-7.15 3.2001-23.1477 4.4725-35.5505 1.5855-15.4552 1.9485-50.3807 1.1537-111-.6379-48.6472-2.0936-104.1995-3.2349-123.4495-1.1413-19.25-2.5505-37.0042-3.1315-39.4538-.9628-4.0597-1.9831-3.4329-11.5298 7.083-5.7604 6.3452-23.9085 26.7994-40.329 45.4538-16.4205 18.6544-43.8705 47.9387-61 65.0762-17.1295 17.1375-45.0945 43.3102-62.1445 58.1615-17.05 14.8513-40.0465 34.1756-51.1034 42.943-11.0569 8.7673-30.1952 22.9343-42.5297 31.4821-12.3345 8.5478-32.988 21.8585-45.8966 29.5793C185.5616 766.873 162.4 779.3104 147 786.791c-15.4 7.4805-38.9857 17.7453-52.4127 22.8105-13.427 5.0653-35.9182 12.3632-49.9805 16.2176-14.0622 3.8544-29.8515 7.0081-35.0872 7.0081H0v-6.9009c0-6.4337 1.6586-8.2177 24.5-26.3524 13.475-10.6983 34.3757-27.6179 46.4459-37.5991 12.0703-9.9812 41.3203-34.2062 65-53.8332 23.6797-19.6271 53.8541-44.8271 67.0541-56 13.2-11.1729 53.3351-49.5644 89.189-85.3144 40.3115-40.1946 73.5615-75.3038 87.1282-92 12.0665-14.85 28.6973-36 36.9572-47s19.795-27.1089 25.6335-35.7975l10.6154-15.7975-8.7617 1.4087c-4.8189.7748-15.9617 2.3063-24.7617 3.4034s-31.5985 5.1053-50.6633 8.9072c-19.0648 3.8019-48.7648 10.4492-66 14.7718-17.2352 4.3226-41.2367 9.8939-53.3367 12.3807-17.892 3.6771-28.7222 4.5403-58 4.6223-31.8233.0892-37.8563-.4343-52-4.5122-8.8-2.5372-21.85-7.8072-29-11.7112s-18.6828-11.1398-25.6286-16.0797c-6.9457-4.9399-18.9925-15.0982-26.7707-22.574-12.8161-12.318-14.0097-14.1283-12.7299-19.3072.7767-3.1431 2.0295-6.3507 2.7839-7.128.7544-.7772 18.9157-3.2477 40.3585-5.49C109.4559 332.6818 137.35 329.938 150 328.8268c12.65-1.1112 47.3-3.8308 77-6.0436s65.7-4.9144 80-6.0037 41.3-2.9057 60-4.0364c18.7-1.1307 44.35-2.9033 57-3.939s27.05-2.723 32-3.7494c4.95-1.0265 15.1833-3.715 22.7406-5.9746 7.5573-2.2595 15.9575-5.5608 18.667-7.3361 2.7095-1.7754 6.0994-6.0829 7.5331-9.5724 1.4337-3.4894 3.7165-13.0279 5.0731-21.1966 1.4404-8.674 1.9216-20.3214 1.1566-28-.7204-7.2313-3.091-25.2466-5.2679-40.0339-2.177-14.7874-6.1955-37.9362-8.9301-51.4419-2.7346-13.5056-7.6466-31.8843-10.9156-40.8415-3.269-8.9572-10.4691-24.7555-16.0002-35.1074C460.7925 48.2119 460 45.6494 460 33.0327c0-13.6287.0434-13.736 8.8205-21.8264 5.4028-4.9801 11.796-8.7433 16.5-9.7121 4.2237-.8699 12.1795-1.5411 17.6795-1.4916 5.5.0496 14.95 1.6976 21 3.6623 6.05 1.9647 22.7 9.2483 37 16.1857 14.3 6.9374 30.6844 16.5202 36.4099 21.295 5.7254 4.7749 12.4754 12.7316 15 17.6816 3.934 7.7136 4.5847 12.0016 4.5525 30-.0292 16.264-1.2623 25.736-5.4681 42-2.9868 11.55-6.3441 30.9-7.4607 43-1.1166 12.1-2.031 36.2039-2.0319 53.5642-.0012 22.7087.7931 33.4665 2.8313 38.3444 1.5581 3.7291 5.1981 8.3299 8.0888 10.224 4.3702 2.8635 8.0214 3.2266 21.6671 2.1549 9.2569-.727 29.0533-4.8031 45.4112-9.3502 15.95-4.4337 39.35-9.9212 52-12.1944 18.9223-3.4004 28.3187-3.9588 53-3.1497 26.2244.8597 32.6051 1.7751 50.7 7.2734 11.385 3.4594 27.585 9.752 36 13.9835 8.415 4.2315 20.8124 11.8379 27.5497 16.9031 7.1278 5.3588 13.3996 11.935 15 15.7281 1.5127 3.5853 2.7504 11.6101 2.7504 17.833 0 9.6009-.9241 12.4783-6.1022 19-3.3562 4.2271-10.1377 9.7129-15.0701 12.1906-8.4893 4.2646-12.5935 4.614-76.8978 6.547-37.3614 1.1231-94.0299 2.8664-125.9299 3.874-44.4319 1.4035-60.5044 2.6115-68.7057 5.1638-9.7027 3.0196-11.0898 4.2002-14.8062 12.6016-4.0847 9.2341-4.095 10.1735-2.6916 243.2893.9992 165.9695.7675 239.8352-.7969 254.0194-1.2132 11-4.0733 27.2-6.3557 36-2.2825 8.8-7.5238 23.2-11.6474 32-4.1236 8.8-11.2327 20.95-15.798 27-4.5653 6.05-13.4526 16.2896-19.7496 22.7548-6.297 6.4651-14.1491 12.9045-17.4491 14.3097-3.3 1.4052-10.05 3.0942-15 3.7533z"
              fill="#f1cd4a"/>
    </symbol>

    <symbol id="pantheon-title" viewBox="0 0 705.2 113.5">
        <path d="M109.8906 17.2617l-14.459 51.4434 24.1075-11.5-9.6485-39.9434Zm-77.5566-1.9453c-.4147.0082-.8283.0312-1.2422.0684v10.1777 13.8516 13.9043 10.7343 4.2032s.719-.357 2.166-1.084c1.441-.74 3.2529-1.8574 5.4199-3.3574 2.181-1.494 4.3613-3.4104 6.5293-5.7364 2.181-2.34 4.0254-5.089 5.5254-8.248 1.513-3.172 2.2735-6.8267 2.2735-10.9707 0-5.69-1.1515-10.3223-3.4375-13.9043-2.274-3.576-5.095-6.1404-8.459-7.6934-2.9488-1.3527-5.8725-2.0029-8.7754-1.9453Zm517.7558-.3809c-.409.515-1.3417 1.6793-2.8027 3.4903-1.447 1.818-3.0525 4.203-4.8105 7.164-1.765 2.948-3.3508 6.2836-4.7578 10.0176-1.395 3.721-2.2746 7.7333-2.6446 12.0293-.357 4.302.1468 8.7369 1.5078 13.2969 1.546 5.075 3.7923 9.5621 6.7403 13.4551 2.961 3.879 6.1744 7.2426 9.6504 10.0976 3.469 2.855 6.8326 5.1939 10.0976 7.0039 3.278 1.798 6.0803 3.1928 8.4063 4.1778 2.326.991 3.7542 1.638 4.2832 1.955.72-.72 2.0615-2.4309 4.0175-5.1269 1.969-2.696 3.8908-6.1138 5.7618-10.2578 1.863-4.137 3.1597-8.7753 3.8867-13.9043.72-5.141.1974-10.4545-1.5606-15.9395-1.659-5.181-3.9116-9.7359-6.7656-13.6679-2.842-3.945-5.948-7.3609-9.332-10.2559-3.37-2.907-6.6031-5.3211-9.7031-7.2441-3.106-1.916-5.7487-3.3974-7.9297-4.4414-2.168-1.037-3.516-1.6517-4.045-1.8497Zm-158.6855-11.9746h38.543v1.8496c0 .846-.2118 1.6858-.6348 2.5118-.41.833-1.2354 1.4485-2.4844 1.8515l-4.4941.9239v93.1308l4.4941.9258c1.249.304 2.0744.8708 2.4844 1.7168.423.833.6348 1.7052.6348 2.6172v1.8769h-38.543v-1.8769c0-.912.2004-1.7842.6094-2.6172.423-.846 1.1951-1.4128 2.3261-1.7168l4.5196-.9258v-45.2558l-25.8008 8.4062v36.9824l4.4941.9512c1.249.304 2.0744.8654 2.4844 1.6914.423.833.6367 1.6584.6367 2.4844v1.8769h-38.7011v-1.8769c0-.826.1974-1.6514.6074-2.4844.423-.826 1.2484-1.3874 2.4844-1.6914l4.5214-.9512v-93.1035l-4.5214-1.084c-1.236-.317-2.0614-.8867-2.4844-1.7187-.41-.826-.6074-1.6524-.6074-2.4844v-1.8516h38.7011v1.8516c0 .832-.2137 1.6584-.6367 2.4844-.41.832-1.2354 1.4017-2.4844 1.7187l-4.4941 1.084v44.7793l25.8008-11.8164v-33.123l-4.5196-.9239c-1.131-.403-1.9031-1.0185-2.3261-1.8515-.409-.826-.6094-1.6658-.6094-2.5118v-1.8496Zm260.1953-.1582 32.1699 80.3614v-73.0664l-4.4902-.9239c-1.26-.403-2.0898-1.0195-2.5098-1.8515-.41-.827-.6093-1.6658-.6093-2.5118v-1.8496h29.08v1.8496c0 .846-.2206 1.6848-.6406 2.5118-.41.832-1.1803 1.4485-2.3203 1.8515l-4.5293.9239v100.2675h-25.9492l-33.2617-79.7265v72.5898l4.5214.9258c1.23.304 2.049.8708 2.459 1.7168.42.833.6309 1.7052.6309 2.6172v1.8769h-29.0488v-1.8769c0-.912.1993-1.7842.6093-2.6172.423-.846 1.2475-1.4128 2.4825-1.7168l4.5214-.9258v-93.1308l-4.5214-.9239c-1.235-.403-2.0595-1.0195-2.4825-1.8515-.41-.827-.6093-1.6658-.6093-2.5118v-1.8496h34.0175l-.4492.1582.9297-.3164Zm-215.5859 0h68.5449v27.9668s-.7604-.9776-2.2734-2.9336c-1.5-1.969-3.7787-4.2566-6.8457-6.8476-3.053-2.59-6.9393-4.8624-11.6583-6.8184-4.7049-1.969-10.3228-2.9629-16.8398-2.9629v41.3457l32.4902-5.1289v14.9102h-32.4902v39.6269c5.182 0 9.8153-.7209 13.9063-2.1679 4.084-1.441 7.6132-3.252 10.5742-5.42 2.961-2.181 5.419-4.3613 7.375-6.5292 1.97-2.1801 3.4233-3.9984 4.3613-5.4454.932-1.461 1.4004-2.1953 1.4004-2.1953v30.1621h-68.5449v-2.0078c0-.826.1984-1.7055.6074-2.6445.423-.931 1.2484-1.5068 2.4844-1.7188l4.3633-.9238v-92.8125l-4.3633-1.084c-1.236-.212-2.0614-.7743-2.4844-1.6933-.409-.932-.6074-1.824-.6074-2.67v-2.0078Zm-179.7032 0h81.6036v27.5176s-.9388-.9046-2.8028-2.7226c-1.85-1.811-4.2809-3.9643-7.2949-6.4493-3-2.485-6.2114-4.7583-9.6484-6.8203-3.423-2.075-6.6291-3.385-9.6231-3.914v92.8144l4.4942.9258c1.249.304 2.0743.8925 2.4843 1.7715.423.886.6348 1.7365.6348 2.5625v1.8769H277.457v-1.8769c0-.826.1985-1.6765.6075-2.5625.423-.879 1.2557-1.4675 2.5117-1.7715l4.4941-.9258v-92.8144c-3.001.529-6.1843 1.839-9.5683 3.914-3.37 2.062-6.5042 4.3353-9.4122 6.8203-2.894 2.485-5.2476 4.6383-7.0586 6.4493-1.817 1.818-2.7207 2.7226-2.7207 2.7226v-27.5176Zm-57.1992 0 32.1719 80.3614v-73.0664l-4.4941-.9239c-1.255-.403-2.0888-1.0195-2.5118-1.8515-.41-.827-.6074-1.6658-.6074-2.5118v-1.8496h29.0781v1.8496c0 .846-.2117 1.6848-.6347 2.5118-.41.832-1.1832 1.4485-2.3262 1.8515l-4.5195.9239v100.2675h-25.959l-33.2559-79.7265v72.5898l4.5196.9258c1.23.304 2.049.8708 2.4589 1.7168.4231.833.6348 1.7052.6348 2.6172v1.8769h-29.0527v-1.8769c0-.912.1994-1.7842.6094-2.6172.423-.846 1.2483-1.4128 2.4843-1.7168l4.5196-.9258v-93.1308l-4.5196-.9239c-1.236-.403-2.0613-1.0195-2.4843-1.8515-.41-.827-.6094-1.6658-.6094-2.5118v-1.8496h34.0234l-.4492.1582.9238-.3164Zm-97.1504-2.6445s.9328.1064 2.8028.3184c1.863.211 4.1895.5749 6.9785 1.0839 2.802.515 5.6564 1.2611 8.5644 2.2461 2.907.991 5.4453 2.2139 7.6133 3.6739 2.181 1.447 3.5299 3.1997 4.0449 5.2617.932 3.634 2.1214 8.352 3.5684 14.168 1.461 5.802 3.0468 12.121 4.7578 18.955 1.705 6.84 3.3908 13.6526 5.0488 20.4336 1.653 6.787 3.1532 13.0071 4.4942 18.6641 1.355 5.644 2.4453 10.1709 3.2773 13.5879.826 3.423 1.2442 5.1269 1.2442 5.1269l4.6523.9258c1.249.423 2.0754.8446 2.4844 1.2676.423.41.6348 1.0246.6348 1.8516v2.6425h-37.168v-2.6425c0-.827.1974-1.4416.6074-1.8516.423-.423 1.2567-.8446 2.5117-1.2676l2.961-.6094-8.5645-34.6543-29.8457 9.6211-6.9785 24.877 2.9355.7656c1.46.635 2.1934 1.6782 2.1934 3.1192v2.6425h-23.9512v-2.6425c0-1.441.7283-2.4842 2.1953-3.1192l4.6524-1.084 28.2851-103.3613Zm-70.8691 0v9.9395l26.1152-9.9395s.9525.8865 2.8555 2.6445c1.917 1.765 4.1244 4.2284 6.6094 7.4004 2.485 3.159 4.6863 6.7803 6.6093 10.8653 1.916 4.09 2.8809 8.5258 2.8809 13.2968 0 5.076-1.0963 9.6351-3.2773 13.666-2.167 4.0381-4.9639 7.6406-8.3809 10.8126-3.423 3.159-7.0506 5.8829-10.8906 8.1699-3.826 2.273-7.4483 4.1622-10.8653 5.6562-3.423 1.5-6.2252 2.5894-8.4062 3.2774-2.168.674-3.25 1.0039-3.25 1.0039v26.2773l4.4941.9258c1.249.304 2.0735.8708 2.4825 1.7168.423.833.6347 1.7052.6347 2.6172v1.8769h-38.6992v-1.8769c0-.912.1974-1.7842.6074-2.6172.423-.846 1.2484-1.4128 2.4844-1.7168l4.3613-.9258v-93.2617h-3.1191c-2.894 0-4.334-.8795-4.334-2.6445v-2.961l31.0879-4.2031ZM562.2246 0c6.939 0 13.4408 1.4804 19.5078 4.4414 6.06 2.948 11.3942 7.0055 15.9942 12.1875 4.613 5.181 8.2195 11.2007 10.8105 18.0547 2.591 6.84 3.8867 14.1879 3.8867 22.0449 0 7.772-1.5326 15.1082-4.5996 21.9942-3.053 6.893-7.0844 12.9264-12.1074 18.1074-5.023 5.182-10.4669 9.2548-16.3359 12.2148-5.855 2.961-11.5723 4.4395-17.1563 4.4395-6.946 0-13.4498-1.4785-19.5098-4.4395-6.067-2.96-11.4065-7.0328-16.0195-12.2148-4.599-5.181-8.1951-11.2144-10.7851-18.1074-2.591-6.886-3.8868-14.2222-3.8868-21.9942 0-6.304 1.085-12.2789 3.252-17.9219 2.181-5.658 5.0552-10.8379 8.6172-15.5429 3.576-4.719 7.5937-8.817 12.0547-12.293 4.454-3.47 8.9691-6.1658 13.5351-8.0898 4.56-1.916 8.8102-2.8809 12.7422-2.8809Z"/>
    </symbol>

    <symbol id="pantheon-subtitle" viewBox="0 0 1092 82.58">
        <path d="M873.2773-.002c-.4068.0004-.8207.008-1.2382.0254-.92 0-2.1793.2117-3.7793.6347-1.61.423-3.3691 1.15-5.2891 2.168-1.92 1.004-3.7708 2.3988-5.5508 4.1758-1.78 1.785-3.2394 4.0656-4.3594 6.8476-1.39 3.298-1.8811 6.384-1.4511 9.252.42 2.855 1.7409 5.8031 3.9609 8.8301 2.23 3.033 5.3501 6.502 9.3301 10.414s7.4205 7.4476 10.3105 10.5996c2.91 3.14 4.8986 6.0413 5.9786 8.6973 1.09 2.644.9407 5.1956-.4493 7.6406-3.51 0-6.7304-.82-9.6504-2.459-2.93-1.639-5.4706-3.8384-7.6406-6.6074-2.17-2.762-3.8488-5.8031-5.0488-9.1211-1.18-3.311-1.7695-6.6412-1.7695-9.9922 0 0-.4609.4955-1.3809 1.4805-.89.971-1.9506 2.2604-3.1406 3.8594-1.18 1.606-2.2385 3.3711-3.1485 5.2871-.9 1.924-1.3515 3.826-1.3515 5.709 0 3.701 1.0002 6.9923 2.9902 9.8613 1.99 2.855 4.7099 5.0875 8.1699 6.6875 3.47 1.599 7.3597 2.4063 11.6797 2.4063 5.3 0 9.6699-.8073 13.0899-2.4063 3.44-1.6 6.0608-3.6335 7.8808-6.1055 1.81-2.485 2.991-5.036 3.541-7.666.56-2.624.6684-4.9515.3184-6.9805-.62-3.2049-2.0097-6.0791-4.1797-8.6171-2.17-2.551-5.0692-5.472-8.6992-8.75-.78-.634-2.0313-1.7317-3.7813-3.3047-1.74-1.566-3.6697-3.277-5.7597-5.127-2.1-1.851-4.0888-3.583-5.9688-5.209-1.54-1.388-2.5715-2.9935-3.1015-4.8105-.51-1.811-.4391-3.4904.2109-5.0234.67-1.533 2.0208-2.5431 4.0508-3.0391 1.6-.423 3.0983-.1068 4.4883.9512 1.41 1.044 2.6712 2.4515 3.7812 4.2285 1.13 1.785 2.0889 3.5638 2.8789 5.3418.81 1.785 1.4617 3.1988 1.9317 4.2558.78-.773 1.8392-1.9821 3.1992-3.6211 1.38-1.639 2.779-3.3311 4.209-5.0761 1.42-1.745 2.6218-3.2057 3.5918-4.3887.99-1.196 1.4785-1.7969 1.4785-1.7969s-.4885-.4831-1.4785-1.4551c-.97-.984-2.4013-2.0886-4.2813-3.3046-1.89-1.229-4.1703-2.312-6.8203-3.25-2.3188-.833-4.904-1.2452-7.752-1.2422zM619.8926.0234c-2.643 0-5.5099.655-8.5899 1.957-3.067 1.288-6.1081 3.1063-9.1211 5.4453-3.001 2.327-5.7032 5.0884-8.1152 8.2734-2.399 3.173-4.3344 6.6618-5.8144 10.4688-1.468 3.806-2.1954 7.8444-2.1954 12.1074 0 5.234.8722 10.1771 2.6172 14.8301 1.744 4.639 4.1636 8.6975 7.2696 12.1875 3.119 3.489 6.7215 6.2317 10.8125 8.2207 4.084 1.989 8.4647 2.9863 13.1367 2.9863 3.767 0 7.6281-.9973 11.5801-2.9863 3.945-1.989 7.612-4.7317 10.9961-8.2207 3.397-3.49 6.1189-7.5485 8.1679-12.1875 2.062-4.653 3.0938-9.5961 3.0938-14.8301 0-5.3-.8722-10.2628-2.6172-14.8828-1.745-4.613-4.1696-8.6712-7.2695-12.1602-3.106-3.489-6.7012-6.2247-10.7852-8.2207-4.091-1.99-8.48-2.9882-13.166-2.9882zm400.6679 0c-2.65 0-5.5098.655-8.5898 1.957-3.07 1.288-6.1003 3.1063-9.0703 5.4453-2.96 2.327-5.6711 5.0884-8.1211 8.2734-2.43 3.173-4.3794 6.6618-5.8594 10.4688-1.47 3.806-2.1992 7.8444-2.1992 12.1074 0 5.234.8691 10.1644 2.6191 14.7774 1.74 4.6 4.1596 8.6625 7.2696 12.1855 3.12 3.529 6.7205 6.2667 10.8105 8.2227 4.08 1.956 8.4706 2.9336 13.1406 2.9336 3.49 0 6.54-.5152 9.17-1.5333 2.62-1.005 4.9191-2.2341 6.8691-3.7011 1.96-1.46 3.7002-2.8558 5.2402-4.1778v-6.08c-.43.212-1.2.674-2.33 1.375-1.11.687-2.3204 1.442-3.6504 2.248-1.32.793-2.5103 1.4742-3.5703 2.0352-1.04.549-1.6296.7922-1.7696.7402-3.98-.846-7.7899-2.484-11.4199-4.916-3.63-2.446-6.8091-5.4339-9.5391-8.9629-2.72-3.542-4.7007-7.3356-5.9707-11.3926-1.4-4.388-1.8496-8.4997-1.3496-12.3457.49-3.84 1.4489-7.2026 2.8789-10.0976 1.43-2.907 2.9114-5.2473 4.4414-7.0313 1.53-1.778 2.62-2.8817 3.25-3.3047 3.49 1.111 6.2288 2.5111 8.2188 4.2031 1.99 1.678 3.4398 3.3495 4.3398 5.0215.91 1.679 1.4903 3.0929 1.7403 4.2559.25 1.15.3711 1.7187.3711 1.7187l15.1992-15.0937c-3.01-2.994-6.5102-5.2934-10.4902-6.8984-3.99-1.62-7.869-2.4336-11.629-2.4336zM419.5195.1288 398.5566 2.9589V4.9667c0 1.183.9776 1.7715 2.9336 1.7715h2.1153V69.5995l-2.9336.6094c-.846.212-1.4164.6021-1.6934 1.1641-.284.568-.4219 1.1545-.4219 1.7695V74.412h26.0899V73.1425c0-.615-.1439-1.2015-.4219-1.7695-.284-.562-.84-.9521-1.666-1.1641l-3.0391-.6094V51.8886s.7264-.2255 2.1934-.6875c1.46-.456 3.3432-1.1894 5.6562-2.1934 2.306-1.005 4.7463-2.2736 7.3243-3.8066 2.59-1.546 5.0346-3.3904 7.3476-5.5254 2.307-2.128 4.1902-4.5525 5.6582-7.2695 1.46-2.729 2.1934-5.8016 2.1934-9.2246 0-3.206-.6477-6.1866-1.9297-8.9356-1.289-2.763-2.7768-5.2156-4.4688-7.3496-1.678-2.128-3.1574-3.7857-4.4394-4.9687C437.7667.7317 437.125.1288 437.125.1288L419.5195 6.8437V.1288zm53.5254 0-20.8574 2.8301V4.9667c0 1.183.9381 1.7715 2.8281 1.7715h2.2207V69.4941l-2.9336.6347c-.846.126-1.4153.5017-1.6933 1.1367-.284.634-.4219 1.2295-.4219 1.7715v1.375h46.209V54.0839s-.3181.4945-.9531 1.4785c-.621.972-1.5986 2.1958-2.9336 3.6758-1.322 1.467-2.9817 2.9287-4.9707 4.3887-1.996 1.467-4.3748 2.6888-7.1368 3.6738-2.75.971-5.8684 1.4551-9.3574 1.4551V.1288zm333.3028 0-2.1954.3184-18.1347 2.5117V4.5448c0 .548.2255 1.1218.6875 1.7168.456.602 1.2021.8985 2.2461.8985h2.3281V55.3515c0 3.489.4614 6.4769 1.4004 8.9609.951 2.472 2.1206 4.5138 3.5156 6.1328 1.387 1.606 2.8035 2.8496 4.2305 3.7286 1.441.859 2.6293 1.4401 3.5683 1.7441.952.318 1.4278.4766 1.4278.4766l18.8476-16.7598V74.412h20.4297V73.1425c0-.542-.1399-1.097-.4199-1.666-.28-.561-.8495-.9826-1.6895-1.2676l-3.0097-.6094V.1288l-20.334 2.8301V4.5448c0 .548.2191 1.1218.6621 1.7168.456.602 1.2164.8985 2.2734.8985h2.0879V54.7187c-.634.495-1.653 1.0968-3.041 1.7968-1.394.687-2.9256 1.2608-4.5976 1.7168-1.679.443-3.3066.5494-4.8926.3184-1.573-.245-2.8471-.9911-3.8321-2.2461-.971-1.269-1.455-3.2921-1.455-6.0801L806.3477.1288zM0 1.9277V20.4589l1.8242-1.8242c1.216-1.229 2.8018-2.6843 4.7578-4.3633 1.956-1.672 4.0717-3.2046 6.3457-4.5996 2.273-1.388 4.4202-2.2602 6.4492-2.6172V69.5995l-3.0391.6094c-.846.212-1.4154.6208-1.6934 1.2149-.264.6019-.3965 1.1767-.3965 1.7187V74.412H40.3398V73.1425c0-.542-.1449-1.1167-.4219-1.7187-.284-.594-.8474-1.0029-1.6934-1.2149l-3.0391-.6094V7.0546c2.022.357 4.1889 1.2292 6.5019 2.6172 2.306 1.395 4.4749 2.9276 6.5039 4.5996 2.022 1.679 3.66 3.1343 4.916 4.3633 1.249 1.216 1.877 1.8242 1.877 1.8242V1.9277H0zm121.0762 0V3.2753c0 .568.1378 1.1619.4218 1.7969.278.621.8474.9987 1.6934 1.1367l2.9336.7402v62.545l-2.9336.6347c-.846.126-1.4154.5017-1.6934 1.1367-.284.634-.4218 1.2295-.4218 1.7715v1.375h46.207V54.0839s-.3172.4945-.9512 1.4785c-.622.972-1.5986 2.1958-2.9336 3.6758-1.321 1.467-2.9797 2.9287-4.9687 4.3887-1.996 1.467-4.3757 2.6888-7.1387 3.6738-2.749.971-5.8674 1.4531-9.3574 1.4531V42.0292h21.8867V31.9823l-21.8867 3.4629V7.5839c4.402 0 8.1952.6604 11.3672 1.9824 3.172 1.321 5.7886 2.8556 7.8496 4.5996 2.062 1.745 3.5976 3.292 4.6016 4.627 1.018 1.322 1.5312 1.9824 1.5312 1.9824V1.9277h-46.207zm83.498 0V20.4589l1.8242-1.8242c1.216-1.229 2.8019-2.6843 4.7578-4.3633 1.9561-1.672 4.0728-3.2046 6.3458-4.5996 2.274-1.388 4.4202-2.2602 6.4492-2.6172V69.5995l-3.041.6094c-.846.212-1.4134.6208-1.6914 1.2149-.2641.6019-.3965 1.1767-.3965 1.7187V74.412h26.0918V73.1425c0-.542-.1459-1.1167-.4239-1.7187-.284-.594-.8454-1.0029-1.6914-1.2149l-3.039-.6094V7.0546c2.023.357 4.1889 1.2292 6.5019 2.6172 2.307 1.395 4.4759 2.9276 6.5039 4.5996 2.023 1.679 3.661 3.1343 4.916 4.3633 1.249 1.216 1.877 1.8242 1.877 1.8242V1.9277H204.5742zm59.5879 0V3.2753c0 .568.1398 1.1619.4238 1.7969.278.621.8454.9987 1.6914 1.1367l2.9356.7402v62.545l-2.9356.6347c-.846.126-1.4134.5017-1.6914 1.1367-.284.634-.4238 1.2295-.4238 1.7715v1.375h46.209V54.0839s-.3172.4945-.9512 1.4785c-.621.972-1.5986 2.1958-2.9336 3.6758-1.322 1.467-2.9817 2.9287-4.9707 4.3887-1.996 1.467-4.3737 2.6888-7.1367 3.6738-2.749.971-5.8694 1.4531-9.3594 1.4531V42.0292h21.8887V31.9823l-21.8887 3.4629V7.5839c4.402 0 8.1952.6604 11.3672 1.9824 3.173 1.321 5.7896 2.8556 7.8516 4.5996 2.062 1.745 3.5956 3.292 4.5996 4.627 1.018 1.322 1.5332 1.9824 1.5332 1.9824V1.9277h-46.209zm60.8652 0v.1054h-9.0136V3.2753c0 .568.1398 1.1294.4238 1.6914.277.548.8454.9652 1.6914 1.2422l3.0137.6348V69.5995l-3.0137.6094c-.846.212-1.4144.6021-1.6914 1.1641-.284.568-.4238 1.1545-.4238 1.7695V74.412h19.5879V73.1425c0-.615-.1439-1.2015-.4219-1.7695-.264-.562-.82-.9521-1.666-1.1641l-3.0391-.6094V16.3593l18.7676 49.5664 3.1191 8.4863h3.5703l5.3379-17.6054 12.3731-40.5254V69.5995l-3.041.6094c-.846.212-1.4134.6021-1.6914 1.1641-.264.568-.3965 1.1545-.3965 1.7695V74.412h26.0918V73.1425c0-.615-.1459-1.2015-.4239-1.7695-.284-.562-.8454-.9521-1.6914-1.1641l-3.041-.6094V6.8437l3.041-.6348c.846-.277 1.4074-.6942 1.6914-1.2422.278-.562.4239-1.1234.4239-1.6914V2.0331H378.0293V1.9277h-8.8027L356.3535 43.0859 341.4707 1.9277H325.0273zm176.1836 0V3.2753c0 .568.1379 1.1619.4219 1.7969.277.621.8454.9987 1.6914 1.1367l2.9356.7402v62.545l-2.9356.6347c-.846.126-1.4144.5017-1.6914 1.1367-.284.634-.4219 1.2295-.4219 1.7715v1.375H547.418V54.0839s-.3172.4945-.9512 1.4785c-.622.972-1.6005 2.1958-2.9356 3.6758-1.3209 1.467-2.9797 2.9287-4.9687 4.3887-1.996 1.467-4.3737 2.6888-7.1367 3.6738-2.749.971-5.8694 1.4531-9.3594 1.4531V42.0292h21.8887V31.9823l-21.8887 3.4629V7.5839c4.402 0 8.1952.6604 11.3672 1.9824 3.172 1.321 5.7896 2.8556 7.8516 4.5996 2.062 1.745 3.5956 3.292 4.5996 4.627 1.018 1.322 1.5332 1.9824 1.5332 1.9824V1.9277H501.2109zm155.7618 0v.1054h-.1055V3.2753c0 .707.1369 1.2955.4219 1.7715.35.635.9124 1.0241 1.6914 1.1621l3.0136.7402V69.5995l-3.0136.6094c-.845.212-1.4144.6021-1.6914 1.1641-.285.568-.4219 1.1545-.4219 1.7695V74.412H682.957V73.1425c0-.615-.1438-1.2015-.4218-1.7695-.284-.562-.8401-.9521-1.6661-1.1641l-3.039-.6094V45.5976h21.8887V35.5527l-21.8887 3.4628V7.5839c4.335 0 8.1024.6604 11.3144 1.9824 3.205 1.321 5.8423 2.8556 7.9043 4.5996 2.062 1.745 3.5937 3.292 4.5977 4.627 1.018 1.322 1.5351 1.9824 1.5351 1.9824V1.9277H656.9727zm241.1464 0V20.4589s.6004-.6082 1.8204-1.8242c1.22-1.229 2.7997-2.6843 4.7597-4.3633 1.96-1.672 4.0699-3.2046 6.3399-4.5996 2.28-1.388 4.4211-2.2602 6.4511-2.6172V69.5995l-3.041.6094c-.84.212-1.4094.6208-1.6894 1.2149-.26.6019-.3907 1.1767-.3907 1.7187V74.412h26.0918V73.1425c0-.542-.1516-1.1167-.4316-1.7187-.28-.594-.8395-1.0029-1.6895-1.2149l-3.039-.6094V7.0546c2.02.357 4.19 1.2292 6.5 2.6172 2.31 1.395 4.4797 2.9276 6.5097 4.5996 2.02 1.679 3.6602 3.1343 4.9102 4.3633 1.25 1.216 1.8789 1.8242 1.8789 1.8242V1.9277H898.1191zm147.5704 0V3.2753c0 .568.1396 1.1619.4296 1.7969.28.621.8414.9987 1.6914 1.1367l2.9297.7402v62.545l-2.9297.6347c-.85.126-1.4114.5017-1.6914 1.1367-.29.634-.4296 1.2295-.4296 1.7715v1.375h46.2109V54.0839s-.3112.4945-.9512 1.4785c-.62.972-1.5997 2.1958-2.9297 3.6758-1.32 1.467-2.9787 2.9287-4.9687 4.3887-2 1.467-4.3806 2.6888-7.1406 3.6738-2.75.971-5.8694 1.4531-9.3594 1.4531V42.0292h21.8887V31.9823l-21.8887 3.4629V7.5839c4.4 0 8.1991.6604 11.3691 1.9824 3.17 1.321 5.7896 2.8556 7.8496 4.5996 2.06 1.745 3.5996 3.292 4.5996 4.627l1.5313 1.9824V1.9277h-46.2109zM91.0371 2.0331V3.2753c0 .568.1325 1.1294.3965 1.6914.278.548.8059.9652 1.5859 1.2422l3.041.6348V29.1542L78.666 37.1112V6.9491l3.0391-.7402c.826-.211 1.382-.5887 1.666-1.1367.278-.562.4238-1.1234.4238-1.6914V2.1386H57.7031V3.3808c0 .568.1398 1.1294.4239 1.6914.278.548.8454.9257 1.6914 1.1367l3.0117.7402V69.707l-3.0117.6074c-.846.212-1.4134.6011-1.6914 1.1621-.284.569-.4239 1.124-.4239 1.666V74.412H83.7949V73.1425c0-.542-.1458-1.097-.4238-1.666-.284-.561-.84-.9501-1.666-1.1621L78.666 69.707V44.7519l17.3945-5.6582V69.5995l-3.041.6094c-.78.212-1.3079.6021-1.5859 1.1641-.264.568-.3965 1.1545-.3965 1.7695V74.412h25.959V73.1425c0-.615-.1449-1.2015-.4219-1.7695-.265-.562-.82-.9521-1.666-1.1641l-3.041-.6094V6.8437l3.041-.6348c.846-.277 1.401-.6942 1.666-1.2422.277-.562.4219-1.1234.4219-1.6914V2.0331H91.0371zm665.6543 0V3.2753c0 .568.1398 1.1294.4238 1.6914.278.548.8454.9652 1.6914 1.2422l3.0411.6348V73.4609c-1.89-.212-3.5551-.8871-4.9961-2.0371-1.428-1.1431-2.6578-2.4836-3.6758-4.0176-1.004-1.546-1.8093-3.0723-2.4043-4.5723-.582-1.493-1.0307-2.7292-1.3477-3.7012-.318-.985-.4765-1.4804-.4765-1.4804l-11.42 12.873s.2837.6226.8457 1.8516c.562 1.216 1.5199 2.6225 2.8809 4.2285 1.355 1.599 3.187 2.9928 5.5 4.1758 2.306 1.197 5.2397 1.7988 8.8027 1.7988.277-.145 1.1492-.7596 2.6172-1.8496 1.46-1.078 3.1837-2.3466 5.1797-3.8066 1.989-1.467 3.9786-2.9217 5.9746-4.3887 1.989-1.481 3.6615-2.7235 5.0235-3.7285 1.355-1.004 2.1001-1.5708 2.2461-1.7168l1.0566-.7403V6.8437l3.041-.6348c.826-.277 1.381-.6942 1.666-1.2422.277-.562.4219-1.1234.4219-1.6914V2.0331H756.6914zm201.0195 0V3.2753c0 .568.13 1.1294.42 1.6914.28.548.8394.9652 1.6894 1.2422l3.0098.6348V69.5995l-3.0098.6094c-.85.212-1.4094.6021-1.6894 1.1641-.29.568-.42 1.1545-.42 1.7695V74.412h26.0899V73.1425c0-.615-.1517-1.2015-.4317-1.7695-.28-.562-.8382-.9521-1.6582-1.1641l-3.041-.6094V6.8437l3.041-.6348c.82-.277 1.3782-.6942 1.6582-1.2422.28-.562.4317-1.1234.4317-1.6914V2.0331H957.7109zM611.7246 10.0956c.35.146 1.2547.5676 2.7227 1.2676 1.46.687 3.2388 1.6863 5.3398 2.9883 2.095 1.289 4.2837 2.9073 6.5567 4.8633 2.2739 1.943 4.368 4.2434 6.291 6.9004 1.916 2.663 3.4358 5.7365 4.5468 9.2265 1.196 3.701 1.5457 7.2815 1.0567 10.7305-.496 3.457-1.3746 6.5847-2.6426 9.3867-1.256 2.789-2.5374 5.0874-3.8594 6.8984-1.322 1.818-2.2336 2.9739-2.7226 3.4629-.357-.211-1.3149-.6409-2.8809-1.2949-1.573-.668-3.4572-1.6141-5.6582-2.8301-2.208-1.229-4.4813-2.8064-6.8203-4.7304-2.327-1.916-4.4876-4.183-6.4766-6.793-1.996-2.624-3.5152-5.6444-4.5722-9.0684-.899-3.079-1.2295-6.0659-.9785-8.9609.244-2.908.8324-5.6112 1.7714-8.1152.951-2.518 2.0143-4.7716 3.1973-6.7676 1.177-1.989 2.2546-3.5965 3.2266-4.8125.984-1.216 1.6183-1.9946 1.9023-2.3516zm-191.3672.2676c1.9576-.0466 3.9249.3935 5.9024 1.3184 2.273 1.045 4.1769 2.7686 5.7109 5.1816 1.546 2.399 2.3262 5.5174 2.3262 9.3574 0 2.802-.5152 5.2744-1.5332 7.4024-1.005 2.115-2.2475 3.9647-3.7285 5.5508-1.467 1.5729-2.9277 2.8687-4.3887 3.8867-1.467 1.004-2.6898 1.7571-3.6738 2.2461-.972.476-1.4532.7129-1.4532.7129V43.1913 35.9745 26.5917 17.2851 10.412c.2793-.0265.5583-.0421.8379-.0488z"/>
    </symbol>
</svg>